<mxfile host="app.diagrams.net" agent="Mozilla/5.0 (Windows NT 10.0; Win64; x64) AppleWebKit/537.36 (KHTML, like Gecko) Chrome/132.0.0.0 Safari/537.36" version="26.0.14">
  <diagram name="‫עמוד-1‬" id="hyvZve8t6bv8eFB8NkO2">
    <mxGraphModel dx="1050" dy="1699" grid="1" gridSize="10" guides="1" tooltips="1" connect="1" arrows="1" fold="1" page="1" pageScale="1" pageWidth="827" pageHeight="1169" math="0" shadow="0">
      <root>
        <mxCell id="0" />
        <mxCell id="1" parent="0" />
        <mxCell id="3gFK6-2FTQnyCM7ovKps-1" value="" style="rounded=0;whiteSpace=wrap;html=1;fillColor=none;dashed=1;dashPattern=8 8;" parent="1" vertex="1">
          <mxGeometry x="100" y="74" width="160" height="460" as="geometry" />
        </mxCell>
        <mxCell id="3gFK6-2FTQnyCM7ovKps-4" value="&lt;font style=&quot;font-size: 19px;&quot;&gt;&lt;b&gt;Source&lt;/b&gt;&lt;/font&gt;" style="text;html=1;align=center;verticalAlign=middle;whiteSpace=wrap;rounded=0;sketch=1;curveFitting=1;jiggle=2;" parent="1" vertex="1">
          <mxGeometry x="115" y="44" width="130" height="30" as="geometry" />
        </mxCell>
        <mxCell id="3gFK6-2FTQnyCM7ovKps-5" value="" style="aspect=fixed;sketch=0;html=1;dashed=0;whitespace=wrap;verticalLabelPosition=bottom;verticalAlign=top;fillColor=#2875E2;strokeColor=#ffffff;points=[[0.005,0.63,0],[0.1,0.2,0],[0.9,0.2,0],[0.5,0,0],[0.995,0.63,0],[0.72,0.99,0],[0.5,1,0],[0.28,0.99,0]];shape=mxgraph.kubernetes.icon2;kubernetesLabel=1;prIcon=api" parent="1" vertex="1">
          <mxGeometry x="149.05" y="110" width="50" height="48" as="geometry" />
        </mxCell>
        <mxCell id="3gFK6-2FTQnyCM7ovKps-6" value="" style="aspect=fixed;sketch=0;html=1;dashed=0;whitespace=wrap;verticalLabelPosition=bottom;verticalAlign=top;fillColor=#2875E2;strokeColor=#ffffff;points=[[0.005,0.63,0],[0.1,0.2,0],[0.9,0.2,0],[0.5,0,0],[0.995,0.63,0],[0.72,0.99,0],[0.5,1,0],[0.28,0.99,0]];shape=mxgraph.kubernetes.icon2;prIcon=api" parent="1" vertex="1">
          <mxGeometry x="149.05" y="270" width="50" height="48" as="geometry" />
        </mxCell>
        <mxCell id="3gFK6-2FTQnyCM7ovKps-7" value="" style="image;aspect=fixed;html=1;points=[];align=center;fontSize=12;image=img/lib/azure2/general/File.svg;" parent="1" vertex="1">
          <mxGeometry x="199.05" y="152.32" width="11.91" height="14.68" as="geometry" />
        </mxCell>
        <mxCell id="3gFK6-2FTQnyCM7ovKps-9" value="" style="image;aspect=fixed;html=1;points=[];align=center;fontSize=12;image=img/lib/azure2/general/File.svg;" parent="1" vertex="1">
          <mxGeometry x="189.05" y="300" width="21.91" height="27" as="geometry" />
        </mxCell>
        <mxCell id="3gFK6-2FTQnyCM7ovKps-11" value="" style="verticalLabelPosition=bottom;shadow=0;dashed=0;align=center;html=1;verticalAlign=top;strokeWidth=1;shape=mxgraph.mockup.markup.line;strokeColor=#999999;" parent="1" vertex="1">
          <mxGeometry x="100" y="390" width="160" height="20" as="geometry" />
        </mxCell>
        <mxCell id="3gFK6-2FTQnyCM7ovKps-12" value="&lt;span style=&quot;font-size: 10px;&quot;&gt;&lt;b&gt;Object type:&lt;/b&gt; Jeson format&lt;/span&gt;" style="text;html=1;align=center;verticalAlign=middle;whiteSpace=wrap;rounded=0;" parent="1" vertex="1">
          <mxGeometry x="100" y="420" width="160" height="30" as="geometry" />
        </mxCell>
        <mxCell id="3gFK6-2FTQnyCM7ovKps-13" value="&lt;span style=&quot;font-size: 10px;&quot;&gt;&lt;b&gt;interface:&lt;/b&gt; Api&lt;/span&gt;" style="text;html=1;align=center;verticalAlign=middle;whiteSpace=wrap;rounded=0;" parent="1" vertex="1">
          <mxGeometry x="100" y="460" width="160" height="30" as="geometry" />
        </mxCell>
        <mxCell id="3gFK6-2FTQnyCM7ovKps-15" value="" style="rounded=0;whiteSpace=wrap;html=1;dashed=1;dashPattern=8 8;" parent="1" vertex="1">
          <mxGeometry x="380" y="80" width="160" height="460" as="geometry" />
        </mxCell>
        <mxCell id="3gFK6-2FTQnyCM7ovKps-17" value="&lt;b&gt;Bronze Layer&lt;/b&gt;" style="rounded=0;whiteSpace=wrap;html=1;fillColor=#f5f5f5;fontColor=#333333;strokeColor=#666666;" parent="1" vertex="1">
          <mxGeometry x="380" y="44" width="160" height="20" as="geometry" />
        </mxCell>
        <mxCell id="3gFK6-2FTQnyCM7ovKps-19" value="" style="shape=datastore;whiteSpace=wrap;html=1;fillColor=#f5f5f5;fontColor=#333333;strokeColor=#666666;" parent="1" vertex="1">
          <mxGeometry x="430" y="130" width="60" height="80" as="geometry" />
        </mxCell>
        <mxCell id="3gFK6-2FTQnyCM7ovKps-20" value="Row&amp;nbsp; Data" style="text;html=1;align=center;verticalAlign=middle;whiteSpace=wrap;rounded=0;fontSize=13;" parent="1" vertex="1">
          <mxGeometry x="430" y="230" width="60" height="30" as="geometry" />
        </mxCell>
        <mxCell id="3gFK6-2FTQnyCM7ovKps-21" value="" style="verticalLabelPosition=bottom;shadow=0;dashed=0;align=center;html=1;verticalAlign=top;strokeWidth=1;shape=mxgraph.mockup.markup.line;strokeColor=#999999;" parent="1" vertex="1">
          <mxGeometry x="380" y="318" width="160" height="20" as="geometry" />
        </mxCell>
        <mxCell id="3gFK6-2FTQnyCM7ovKps-22" value="&lt;b style=&quot;&quot;&gt;&lt;font&gt;Object type&lt;/font&gt;&lt;span style=&quot;font-size: 10px;&quot;&gt;:&lt;/span&gt;&lt;/b&gt;&lt;span style=&quot;font-size: 10px;&quot;&gt; Tables&lt;/span&gt;" style="text;html=1;align=center;verticalAlign=middle;whiteSpace=wrap;rounded=0;" parent="1" vertex="1">
          <mxGeometry x="380" y="350" width="160" height="30" as="geometry" />
        </mxCell>
        <mxCell id="3gFK6-2FTQnyCM7ovKps-23" value="&lt;b&gt;Load:&amp;nbsp;&lt;/b&gt;&lt;font style=&quot;font-size: 10px;&quot;&gt;row by row, inserting only the necessary values that don&#39;t already exist in the database&lt;/font&gt;" style="text;html=1;align=center;verticalAlign=middle;whiteSpace=wrap;rounded=0;" parent="1" vertex="1">
          <mxGeometry x="405" y="390" width="110" height="60" as="geometry" />
        </mxCell>
        <mxCell id="3gFK6-2FTQnyCM7ovKps-24" value="" style="rounded=0;whiteSpace=wrap;html=1;dashed=1;dashPattern=8 8;" parent="1" vertex="1">
          <mxGeometry x="770" y="74" width="160" height="466" as="geometry" />
        </mxCell>
        <mxCell id="3gFK6-2FTQnyCM7ovKps-26" value="" style="shape=datastore;whiteSpace=wrap;html=1;fillColor=#fff2cc;strokeColor=#d6b656;" parent="1" vertex="1">
          <mxGeometry x="820" y="130" width="60" height="80" as="geometry" />
        </mxCell>
        <mxCell id="3gFK6-2FTQnyCM7ovKps-28" value="" style="verticalLabelPosition=bottom;shadow=0;dashed=0;align=center;html=1;verticalAlign=top;strokeWidth=1;shape=mxgraph.mockup.markup.line;strokeColor=#999999;" parent="1" vertex="1">
          <mxGeometry x="770" y="318" width="160" height="20" as="geometry" />
        </mxCell>
        <mxCell id="3gFK6-2FTQnyCM7ovKps-31" value="&lt;b&gt;Gold&amp;nbsp;&lt;/b&gt;&lt;b style=&quot;background-color: transparent; color: light-dark(rgb(0, 0, 0), rgb(255, 255, 255));&quot;&gt;Layer&lt;/b&gt;" style="rounded=0;whiteSpace=wrap;html=1;fillColor=#fff2cc;strokeColor=#d6b656;" parent="1" vertex="1">
          <mxGeometry x="770" y="44" width="160" height="20" as="geometry" />
        </mxCell>
        <mxCell id="3gFK6-2FTQnyCM7ovKps-36" value="&lt;b style=&quot;&quot;&gt;&lt;font&gt;Obje&lt;font style=&quot;&quot;&gt;ct type&lt;/font&gt;:&lt;/font&gt;&lt;/b&gt;&lt;span style=&quot;font-size: 10px;&quot;&gt; Views&lt;/span&gt;" style="text;html=1;align=center;verticalAlign=middle;whiteSpace=wrap;rounded=0;" parent="1" vertex="1">
          <mxGeometry x="765" y="350" width="160" height="40" as="geometry" />
        </mxCell>
        <mxCell id="3gFK6-2FTQnyCM7ovKps-39" value="&lt;b&gt;Process&lt;/b&gt;&lt;font&gt;:&lt;font style=&quot;&quot;&gt; &lt;/font&gt;&lt;/font&gt;&lt;font style=&quot;font-size: 10px;&quot;&gt;data integrations, Automated Reports,&lt;/font&gt;&lt;div&gt;&lt;font style=&quot;font-size: 10px;&quot;&gt;Selecting relevant columns&lt;/font&gt;&lt;/div&gt;" style="text;html=1;align=center;verticalAlign=middle;whiteSpace=wrap;rounded=0;" parent="1" vertex="1">
          <mxGeometry x="785" y="390" width="150" height="30" as="geometry" />
        </mxCell>
        <mxCell id="3gFK6-2FTQnyCM7ovKps-40" value="&lt;b style=&quot;font-size: 10px;&quot;&gt;Model:&amp;nbsp; &lt;/b&gt;&lt;span style=&quot;font-size: 10px;&quot;&gt;Star Schema&lt;/span&gt;" style="text;html=1;align=center;verticalAlign=middle;whiteSpace=wrap;rounded=0;" parent="1" vertex="1">
          <mxGeometry x="795" y="450" width="140" height="30" as="geometry" />
        </mxCell>
        <mxCell id="3gFK6-2FTQnyCM7ovKps-45" value="" style="shape=flexArrow;endArrow=classic;html=1;rounded=0;exitX=1.001;exitY=0.315;exitDx=0;exitDy=0;exitPerimeter=0;width=25;endSize=8.950000000000001;" parent="1" edge="1">
          <mxGeometry width="50" height="50" relative="1" as="geometry">
            <mxPoint x="549.9999999999998" y="243.32999999999998" as="sourcePoint" />
            <mxPoint x="619.8399999999999" y="244.43" as="targetPoint" />
            <Array as="points">
              <mxPoint x="589.8399999999999" y="244.43" />
            </Array>
          </mxGeometry>
        </mxCell>
        <mxCell id="3gFK6-2FTQnyCM7ovKps-47" value="" style="shape=flexArrow;endArrow=classic;html=1;rounded=0;exitX=1.001;exitY=0.315;exitDx=0;exitDy=0;exitPerimeter=0;width=25;endSize=8.950000000000001;" parent="1" edge="1">
          <mxGeometry width="50" height="50" relative="1" as="geometry">
            <mxPoint x="269.9999999999998" y="243.32999999999998" as="sourcePoint" />
            <mxPoint x="339.8399999999999" y="244.43" as="targetPoint" />
            <Array as="points">
              <mxPoint x="309.8399999999999" y="244.43" />
            </Array>
          </mxGeometry>
        </mxCell>
        <mxCell id="3gFK6-2FTQnyCM7ovKps-48" value="" style="shape=flexArrow;endArrow=classic;html=1;rounded=0;exitX=1.001;exitY=0.315;exitDx=0;exitDy=0;exitPerimeter=0;width=25;endSize=8.950000000000001;" parent="1" edge="1">
          <mxGeometry width="50" height="50" relative="1" as="geometry">
            <mxPoint x="949.9999999999998" y="243.32999999999998" as="sourcePoint" />
            <mxPoint x="1019.8399999999999" y="244.43" as="targetPoint" />
            <Array as="points">
              <mxPoint x="989.8399999999999" y="244.43" />
            </Array>
          </mxGeometry>
        </mxCell>
        <mxCell id="3gFK6-2FTQnyCM7ovKps-49" value="" style="rounded=0;whiteSpace=wrap;html=1;fillColor=none;" parent="1" vertex="1">
          <mxGeometry x="1260" y="64.5" width="120" height="490" as="geometry" />
        </mxCell>
        <mxCell id="3gFK6-2FTQnyCM7ovKps-50" value="&lt;span style=&quot;color: rgb(51, 51, 51); font-family: Assistant; text-align: start; background-color: rgb(255, 255, 255);&quot;&gt;&lt;font&gt;Consumers&lt;/font&gt;&lt;/span&gt;" style="text;html=1;align=center;verticalAlign=middle;whiteSpace=wrap;rounded=0;fontSize=17;fontStyle=1" parent="1" vertex="1">
          <mxGeometry x="1265" y="33.5" width="110" height="30" as="geometry" />
        </mxCell>
        <mxCell id="3gFK6-2FTQnyCM7ovKps-51" value="" style="verticalLabelPosition=bottom;aspect=fixed;html=1;shape=mxgraph.salesforce.analytics;" parent="1" vertex="1">
          <mxGeometry x="1290" y="84.5" width="60" height="58.8" as="geometry" />
        </mxCell>
        <mxCell id="3gFK6-2FTQnyCM7ovKps-52" value="Bi Tools" style="text;html=1;align=center;verticalAlign=middle;whiteSpace=wrap;rounded=0;" parent="1" vertex="1">
          <mxGeometry x="1270" y="152.5" width="100" height="30" as="geometry" />
        </mxCell>
        <mxCell id="3gFK6-2FTQnyCM7ovKps-54" value="" style="shape=mxgraph.cisco.people.pc_man;html=1;pointerEvents=1;dashed=0;fillColor=#036897;strokeColor=#ffffff;strokeWidth=2;verticalLabelPosition=bottom;verticalAlign=top;align=center;outlineConnect=0;" parent="1" vertex="1">
          <mxGeometry x="1300" y="250.5" width="50" height="48" as="geometry" />
        </mxCell>
        <mxCell id="3gFK6-2FTQnyCM7ovKps-55" value="Employees" style="text;html=1;align=center;verticalAlign=middle;whiteSpace=wrap;rounded=0;" parent="1" vertex="1">
          <mxGeometry x="1270" y="314.5" width="100" height="30" as="geometry" />
        </mxCell>
        <mxCell id="3gFK6-2FTQnyCM7ovKps-56" value="" style="sketch=0;outlineConnect=0;fontColor=#232F3E;gradientColor=none;fillColor=#7AA116;strokeColor=none;dashed=0;verticalLabelPosition=bottom;verticalAlign=top;align=center;html=1;fontSize=12;fontStyle=0;aspect=fixed;pointerEvents=1;shape=mxgraph.aws4.iot_greengrass_component_machine_learning;" parent="1" vertex="1">
          <mxGeometry x="1298" y="402.5" width="54" height="54" as="geometry" />
        </mxCell>
        <mxCell id="3gFK6-2FTQnyCM7ovKps-57" value="AI Machine learning" style="text;html=1;align=center;verticalAlign=middle;whiteSpace=wrap;rounded=0;" parent="1" vertex="1">
          <mxGeometry x="1270" y="464.5" width="100" height="30" as="geometry" />
        </mxCell>
        <mxCell id="3gFK6-2FTQnyCM7ovKps-58" value="" style="shape=flexArrow;endArrow=classic;html=1;rounded=0;exitX=1.001;exitY=0.315;exitDx=0;exitDy=0;exitPerimeter=0;width=25;endSize=8.950000000000001;" parent="1" edge="1">
          <mxGeometry width="50" height="50" relative="1" as="geometry">
            <mxPoint x="1179.9999999999998" y="244.44999999999996" as="sourcePoint" />
            <mxPoint x="1249.84" y="245.54999999999998" as="targetPoint" />
            <Array as="points">
              <mxPoint x="1210" y="245.45" />
            </Array>
          </mxGeometry>
        </mxCell>
        <mxCell id="3gFK6-2FTQnyCM7ovKps-61" value="&lt;font style=&quot;font-size: 28px;&quot;&gt;&lt;b&gt;Data Warehouse&lt;/b&gt;&lt;/font&gt;" style="text;html=1;align=center;verticalAlign=middle;whiteSpace=wrap;rounded=0;" parent="1" vertex="1">
          <mxGeometry x="740" y="-10" width="310" height="30" as="geometry" />
        </mxCell>
        <mxCell id="3gFK6-2FTQnyCM7ovKps-62" value="" style="sketch=0;outlineConnect=0;fontColor=#232F3E;gradientColor=none;fillColor=#C925D1;strokeColor=none;dashed=0;verticalLabelPosition=bottom;verticalAlign=top;align=center;html=1;fontSize=12;fontStyle=0;aspect=fixed;pointerEvents=1;shape=mxgraph.aws4.rds_sql_server_instance;" parent="1" vertex="1">
          <mxGeometry x="350" y="-40" width="70" height="70" as="geometry" />
        </mxCell>
        <mxCell id="pSt12Gm9G0E2ev9fyqW8-3" value="Business- Ready Data&amp;nbsp;" style="text;html=1;align=center;verticalAlign=middle;whiteSpace=wrap;rounded=0;fontSize=13;" vertex="1" parent="1">
          <mxGeometry x="770" y="230" width="160" height="30" as="geometry" />
        </mxCell>
        <mxCell id="pSt12Gm9G0E2ev9fyqW8-4" value="" style="rounded=0;whiteSpace=wrap;html=1;fillColor=none;" vertex="1" parent="1">
          <mxGeometry x="350" y="30" width="700" height="530" as="geometry" />
        </mxCell>
      </root>
    </mxGraphModel>
  </diagram>
</mxfile>
